<svg xmlns="http://www.w3.org/2000/svg" width="20" height="20" viewBox="0 0 20 20"><defs><style>.a{fill:#3d3a3a;}</style></defs><path class="a" d="M18,13.952H15.169V11.12a.608.608,0,0,0-1.217,0v2.832H11.12a.583.583,0,0,0-.608.608.589.589,0,0,0,.608.608h2.832V18a.589.589,0,0,0,.608.608A.605.605,0,0,0,15.169,18V15.169H18a.608.608,0,0,0,0-1.217Z" transform="translate(-4.56 -4.56)"/><path class="a" d="M13.375,4.721a8.65,8.65,0,1,1-6.12,2.534,8.6,8.6,0,0,1,6.12-2.534m0-1.346a10,10,0,1,0,10,10,10,10,0,0,0-10-10Z" transform="translate(-3.375 -3.375)"/></svg>