<svg xmlns="http://www.w3.org/2000/svg" width="16" height="20" viewBox="0 0 16 20"><defs><style>.a{fill:#fff;}</style></defs><path class="a" d="M18.875,28.336a.671.671,0,0,0-.658.528,1.3,1.3,0,0,1-.259.564.979.979,0,0,1-.834.305,1,1,0,0,1-.834-.305,1.3,1.3,0,0,1-.259-.564.671.671,0,0,0-.658-.528h0a.675.675,0,0,0-.658.823,2.313,2.313,0,0,0,2.408,1.921,2.309,2.309,0,0,0,2.408-1.921.678.678,0,0,0-.658-.823Z" transform="translate(-9.139 -11.08)"/><path class="a" d="M22.574,18.625c-.771-1.007-2.287-1.6-2.287-6.105,0-4.627-2.062-6.487-3.984-6.933-.18-.045-.31-.1-.31-.293V5.151a1.222,1.222,0,0,0-1.2-1.22h-.03a1.222,1.222,0,0,0-1.2,1.22v.144c0,.184-.13.248-.31.293-1.927.451-3.984,2.306-3.984,6.933,0,4.508-1.517,5.093-2.287,6.105a.984.984,0,0,0,.8,1.577h14.02A.984.984,0,0,0,22.574,18.625Zm-1.952.288H8.95a.217.217,0,0,1-.165-.362,6,6,0,0,0,1.051-1.656,11.147,11.147,0,0,0,.716-4.374,7.551,7.551,0,0,1,1.046-4.3,3.212,3.212,0,0,1,1.937-1.369,1.758,1.758,0,0,0,.931-.521.4.4,0,0,1,.6-.01A1.818,1.818,0,0,0,16,6.847a3.212,3.212,0,0,1,1.937,1.369,7.551,7.551,0,0,1,1.046,4.3,11.147,11.147,0,0,0,.716,4.374,6.071,6.071,0,0,0,1.076,1.681A.2.2,0,0,1,20.622,18.913Z" transform="translate(-6.775 -3.93)"/></svg>